<?xml version="1.0" encoding="UTF-8" standalone="no"?>
<svg
   xmlns:dc="http://purl.org/dc/elements/1.1/"
   xmlns:cc="http://creativecommons.org/ns#"
   xmlns:rdf="http://www.w3.org/1999/02/22-rdf-syntax-ns#"
   xmlns:svg="http://www.w3.org/2000/svg"
   xmlns="http://www.w3.org/2000/svg"
   xmlns:sodipodi="http://sodipodi.sourceforge.net/DTD/sodipodi-0.dtd"
   xmlns:inkscape="http://www.inkscape.org/namespaces/inkscape"
   version="1"
   viewBox="0 0 61.245331 61.245331"
   enable-background="new 0 0 48 48"
   id="svg1102"
   sodipodi:docname="calendar.svg"
   width="61.245331"
   height="61.245331"
   inkscape:version="0.92.5 (2060ec1f9f, 2020-04-08)">
  <metadata
     id="metadata1108">
    <rdf:RDF>
      <cc:Work
         rdf:about="">
        <dc:format>image/svg+xml</dc:format>
        <dc:type
           rdf:resource="http://purl.org/dc/dcmitype/StillImage" />
        <dc:title></dc:title>
      </cc:Work>
    </rdf:RDF>
  </metadata>
  <defs
     id="defs1106" />
  <sodipodi:namedview
     pagecolor="#ffffff"
     bordercolor="#666666"
     borderopacity="1"
     objecttolerance="10"
     gridtolerance="10"
     guidetolerance="10"
     inkscape:pageopacity="0"
     inkscape:pageshadow="2"
     inkscape:window-width="959"
     inkscape:window-height="1007"
     id="namedview1104"
     showgrid="false"
     fit-margin-top="0"
     fit-margin-left="0"
     fit-margin-right="0"
     fit-margin-bottom="0"
     inkscape:zoom="5.5463688"
     inkscape:cx="34.620007"
     inkscape:cy="43.9946"
     inkscape:window-x="0"
     inkscape:window-y="0"
     inkscape:window-maximized="0"
     inkscape:current-layer="svg1102" />
  <path
     style="font-style:normal;font-weight:normal;font-size:12px;font-family:Dialog;color-interpolation:auto;fill:#98f2f2;fill-opacity:1;stroke:none;stroke-width:0.92994672;stroke-linecap:round;stroke-linejoin:round;stroke-miterlimit:1.45000005;stroke-dasharray:none;stroke-dashoffset:0;stroke-opacity:1;color-rendering:auto;image-rendering:auto;shape-rendering:auto;text-rendering:auto"
     id="path930"
     sodipodi:type="arc"
     sodipodi:cx="30.622665"
     sodipodi:cy="30.622665"
     sodipodi:rx="30.622665"
     sodipodi:ry="30.622665"
     sodipodi:start="0"
     sodipodi:end="6.2821556"
     sodipodi:open="true"
     d="M 61.245331,30.622665 A 30.622665,30.622665 0 0 1 30.630548,61.24533 30.622665,30.622665 0 0 1 4.0586395e-6,30.638432 30.622665,30.622665 0 0 1 30.599016,9.1319385e-6 30.622665,30.622665 0 0 1 61.245315,30.591133" />
  <g
     id="g5395"
     transform="translate(6.6226654,8.1226654)">
    <path
       id="path1060"
       d="M 5,38 V 14 h 38 v 24 c 0,2.2 -1.8,4 -4,4 H 9 C 6.8,42 5,40.2 5,38 Z"
       inkscape:connector-curvature="0"
       style="fill:#ffffff" />
    <path
       id="path1062"
       d="m 43,10 v 6 H 5 V 10 C 5,7.8 6.8,6 9,6 h 30 c 2.2,0 4,1.8 4,4 z"
       inkscape:connector-curvature="0"
       style="fill:#f44336" />
    <g
       id="g1068"
       style="fill:#b71c1c">
      <circle
         id="circle1064"
         r="3"
         cy="10"
         cx="33" />
      <circle
         id="circle1066"
         r="3"
         cy="10"
         cx="15" />
    </g>
    <g
       id="g1074"
       style="fill:#b0bec5">
      <path
         id="path1070"
         d="m 33,3 c -1.1,0 -2,0.9 -2,2 v 5 c 0,1.1 0.9,2 2,2 1.1,0 2,-0.9 2,-2 V 5 C 35,3.9 34.1,3 33,3 Z"
         inkscape:connector-curvature="0" />
      <path
         id="path1072"
         d="m 15,3 c -1.1,0 -2,0.9 -2,2 v 5 c 0,1.1 0.9,2 2,2 1.1,0 2,-0.9 2,-2 V 5 C 17,3.9 16.1,3 15,3 Z"
         inkscape:connector-curvature="0" />
    </g>
    <g
       id="g1100"
       style="fill:#90a4ae">
      <rect
         id="rect1076"
         height="4"
         width="4"
         y="20"
         x="13" />
      <rect
         id="rect1078"
         height="4"
         width="4"
         y="20"
         x="19" />
      <rect
         id="rect1080"
         height="4"
         width="4"
         y="20"
         x="25" />
      <rect
         id="rect1082"
         height="4"
         width="4"
         y="20"
         x="31" />
      <rect
         id="rect1084"
         height="4"
         width="4"
         y="26"
         x="13" />
      <rect
         id="rect1086"
         height="4"
         width="4"
         y="26"
         x="19" />
      <rect
         id="rect1088"
         height="4"
         width="4"
         y="26"
         x="25" />
      <rect
         id="rect1090"
         height="4"
         width="4"
         y="26"
         x="31" />
      <rect
         id="rect1092"
         height="4"
         width="4"
         y="32"
         x="13" />
      <rect
         id="rect1094"
         height="4"
         width="4"
         y="32"
         x="19" />
      <rect
         id="rect1096"
         height="4"
         width="4"
         y="32"
         x="25" />
      <rect
         id="rect1098"
         height="4"
         width="4"
         y="32"
         x="31" />
    </g>
  </g>
</svg>
