<?xml version="1.0" encoding="UTF-8" standalone="no"?>
<svg
   xmlns:dc="http://purl.org/dc/elements/1.1/"
   xmlns:cc="http://creativecommons.org/ns#"
   xmlns:rdf="http://www.w3.org/1999/02/22-rdf-syntax-ns#"
   xmlns:svg="http://www.w3.org/2000/svg"
   xmlns="http://www.w3.org/2000/svg"
   xmlns:sodipodi="http://sodipodi.sourceforge.net/DTD/sodipodi-0.dtd"
   xmlns:inkscape="http://www.inkscape.org/namespaces/inkscape"
   height="34.79253"
   width="34.79253"
   version="1.1"
   id="svg46"
   sodipodi:docname="catalog.svg"
   inkscape:version="0.92.5 (2060ec1f9f, 2020-04-08)">
  <metadata
     id="metadata52">
    <rdf:RDF>
      <cc:Work
         rdf:about="">
        <dc:format>image/svg+xml</dc:format>
        <dc:type
           rdf:resource="http://purl.org/dc/dcmitype/StillImage" />
        <dc:title></dc:title>
      </cc:Work>
    </rdf:RDF>
  </metadata>
  <defs
     id="defs50" />
  <sodipodi:namedview
     pagecolor="#ffffff"
     bordercolor="#666666"
     borderopacity="1"
     objecttolerance="10"
     gridtolerance="10"
     guidetolerance="10"
     inkscape:pageopacity="0"
     inkscape:pageshadow="2"
     inkscape:window-width="1920"
     inkscape:window-height="1007"
     id="namedview48"
     showgrid="false"
     fit-margin-top="0"
     fit-margin-left="0"
     fit-margin-right="0"
     fit-margin-bottom="0"
     inkscape:zoom="10.864401"
     inkscape:cx="14.946811"
     inkscape:cy="18.5151"
     inkscape:window-x="0"
     inkscape:window-y="0"
     inkscape:window-maximized="1"
     inkscape:current-layer="svg46" />
  <path
     style="fill:#9dff9d;fill-opacity:1;stroke:none;stroke-width:6.40677977;stroke-linecap:round;stroke-linejoin:round;stroke-miterlimit:4;stroke-dasharray:none;stroke-opacity:1"
     id="path881"
     sodipodi:type="arc"
     sodipodi:cx="17.396265"
     sodipodi:cy="17.396265"
     sodipodi:rx="17.396265"
     sodipodi:ry="17.396265"
     sodipodi:start="0"
     sodipodi:end="6.2821556"
     sodipodi:open="true"
     d="M 34.79253,17.396265 A 17.396265,17.396265 0 0 1 17.400743,34.792529 17.396265,17.396265 0 0 1 2.3056506e-6,17.405222 17.396265,17.396265 0 0 1 17.38283,5.1877138e-6 17.396265,17.396265 0 0 1 34.792521,17.378352" />
  <g
     transform="translate(5.5928335,-1022.5037)"
     id="g44">
    <g
       id="g16">
      <path
         d="m 5,1028.4 c -1.1046,0 -2,0.9 -2,2 v 1 7 1 3 1 5 1 c 0,1.1 0.8954,2 2,2 h 14 c 1.105,0 2,-0.9 2,-2 v -1 -5 -4 -4 -1 -3 -1 c 0,-1.1 -0.895,-2 -2,-2 h -4 z"
         id="path2"
         inkscape:connector-curvature="0"
         style="fill:#2980b9" />
      <path
         d="m 6,1028.4 c -1.1046,0 -2,0.9 -2,2 v 8 4 6 c 0,1.1 0.8954,2 2,2 h 8 4 c 1.105,0 2,-0.9 2,-2 v -6 -4 -4 -4 c 0,-1.1 -0.895,-2 -2,-2 h -4 z"
         id="path4"
         inkscape:connector-curvature="0"
         style="fill:#ecf0f1" />
      <path
         d="m 15,1042.4 v 1 1 1 4 h 4 c 1.105,0 2,-0.9 2,-2 v -2 -2 -1 z"
         id="path6"
         inkscape:connector-curvature="0"
         style="fill:#2ecc71" />
      <path
         d="m 15,1037.4 v 1 1 1 4 h 4 c 1.105,0 2,-0.9 2,-2 v -2 -2 -1 z"
         id="path8"
         inkscape:connector-curvature="0"
         style="fill:#e74c3c" />
      <path
         d="m 15,1032.4 v 1 1 1 4 h 4 c 1.105,0 2,-0.9 2,-2 v -2 -2 -1 z"
         id="path10"
         inkscape:connector-curvature="0"
         style="fill:#f1c40f" />
      <path
         d="m 15,0 v 2 h 4 v 2 2 c 1.105,0 2,-0.8954 2,-2 V 2 C 21,0.8954 20.105,0 19,0 Z"
         transform="translate(0,1028.4)"
         id="path12"
         inkscape:connector-curvature="0"
         style="fill:#9b59b6" />
      <path
         d="m 5,1028.4 c -1.1046,0 -2,0.9 -2,2 v 8 4 5 h 1 v 1 3 c 0,-1.1 0.8954,-2 2,-2 h 8 1 1.281 0.719 0.281 c 0.74,0 1.373,-0.4 1.719,-1 v -1 -5 -4 -4 -4 c 0,-1.1 -0.895,-2 -2,-2 h -4 z"
         id="path14"
         inkscape:connector-curvature="0"
         style="fill:#3498db" />
    </g>
    <g
       transform="translate(0,-2)"
       id="g20"
       style="fill:#2980b9" />
    <path
       d="m 2,1031.4 v 1 h 2 v -1 z m 0,3 v 1 h 2 v -1 z m 0,3 v 1 h 2 v -1 z m 0,3 v 1 h 2 v -1 z m 0,3 v 1 h 2 v -1 z m 0,3 v 1 h 2 v -1 z"
       id="path22"
       inkscape:connector-curvature="0"
       style="fill:#95a5a6" />
    <path
       d="m 5,1028.4 c -1.1046,0 -2,0.9 -2,2 v 1 7 1 3 1 5 1 c 0,1.1 0.8954,2 2,2 h 1 c -1.1046,0 -2,-0.9 -2,-2 v -1 -5 -1 -3 -1 -7 -1 c 0,-1.1 0.8954,-2 2,-2 z"
       id="path24"
       inkscape:connector-curvature="0"
       style="fill:#2980b9" />
    <g
       id="g40"
       style="fill:#bdc3c7">
      <path
         d="m 2,1030.4 v 1 h 1 v -1 z m 0,3 v 1 h 1 v -1 z m 0,3 v 1 h 1 v -1 z m 0,3 v 1 h 1 v -1 z m 0,3 v 1 h 1 v -1 z m 0,3 v 1 h 1 v -1 z"
         id="path26"
         inkscape:connector-curvature="0" />
      <path
         d="m 2,1030.4 c -0.5523,0 -1,0.4 -1,1 0,0.5 0.4477,1 1,1 z"
         id="path28"
         inkscape:connector-curvature="0" />
      <path
         d="m 2,1033.4 c -0.5523,0 -1,0.4 -1,1 0,0.5 0.4477,1 1,1 z"
         id="path30"
         inkscape:connector-curvature="0" />
      <path
         d="m 2,1036.4 c -0.5523,0 -1,0.4 -1,1 0,0.5 0.4477,1 1,1 z"
         id="path32"
         inkscape:connector-curvature="0" />
      <path
         d="m 2,1039.4 c -0.5523,0 -1,0.4 -1,1 0,0.5 0.4477,1 1,1 z"
         id="path34"
         inkscape:connector-curvature="0" />
      <path
         d="m 2,1042.4 c -0.5523,0 -1,0.4 -1,1 0,0.5 0.4477,1 1,1 z"
         id="path36"
         inkscape:connector-curvature="0" />
      <path
         d="m 2,1045.4 c -0.5523,0 -1,0.4 -1,1 0,0.5 0.4477,1 1,1 z"
         id="path38"
         inkscape:connector-curvature="0" />
    </g>
    <path
       d="m 3,1030.4 v 1 h 1 v -1 z m 0,3 v 1 h 1 v -1 z m 0,3 v 1 h 1 v -1 z m 0,3 v 1 h 1 v -1 z m 0,3 v 1 h 1 v -1 z m 0,3 v 1 h 1 v -1 z"
       id="path42"
       inkscape:connector-curvature="0"
       style="fill:#95a5a6" />
  </g>
</svg>
